<?xml version="1.0" encoding="iso-8859-1"?>
<!-- Generator: Adobe Illustrator 19.0.0, SVG Export Plug-In . SVG Version: 6.00 Build 0)  -->
<svg version="1.1" id="Capa_1" xmlns="http://www.w3.org/2000/svg" xmlns:xlink="http://www.w3.org/1999/xlink" x="0px" y="0px"
	 viewBox="0 0 512 512" style="enable-background:new 0 0 512 512;" xml:space="preserve">
<circle style="fill:#35CCFF;" cx="256" cy="256" r="256"/>
<path style="fill:#00BAFF;" d="M511.961,259.077L438.5,185.616l-52.274,12.573L256,63.415L80.952,271.616l-7.452,86l152.641,152.641
	C235.938,511.396,245.898,512,256,512C396.356,512,510.31,399.042,511.961,259.077z"/>
<polygon style="fill:#0074A3;" points="374.794,210.493 256,91.699 137.206,210.493 123.064,196.351 256,63.415 388.936,196.351 "/>
<polygon style="fill:#005C83;" points="256,91.699 374.794,210.493 388.936,196.351 256,63.415 "/>
<rect x="73.5" y="185.62" style="fill:#662E57;" width="365" height="172"/>
<rect x="255.95" y="185.62" style="fill:#590F38;" width="182.55" height="172"/>
<g>
	<path style="fill:#FFFFFF;" d="M205.631,293.446c0,3.855-0.771,7.24-2.313,10.151c-1.542,2.913-3.662,5.355-6.36,7.324
		c-2.698,1.972-5.827,3.47-9.38,4.498c-3.556,1.028-7.346,1.542-11.372,1.542h-44.074v-91.233h48.829
		c3.168,0,6.039,0.687,8.609,2.056c2.57,1.371,4.754,3.148,6.553,5.333c1.799,2.184,3.19,4.67,4.176,7.453
		c0.984,2.785,1.478,5.59,1.478,8.417c0,4.455-1.114,8.631-3.341,12.529c-2.229,3.899-5.483,6.79-9.766,8.674
		c5.224,1.542,9.358,4.305,12.4,8.288C204.109,282.459,205.631,287.45,205.631,293.446z M149.864,240.89v23.001h23.643
		c2.998,0,5.545-1.028,7.646-3.084c2.098-2.056,3.148-4.883,3.148-8.481c0-3.512-0.964-6.296-2.891-8.353
		c-1.928-2.056-4.305-3.084-7.132-3.084h-24.414V240.89z M187.771,290.104c0-1.626-0.279-3.19-0.835-4.69
		c-0.559-1.498-1.307-2.805-2.249-3.919c-0.943-1.112-2.056-1.992-3.341-2.634c-1.285-0.643-2.698-0.964-4.24-0.964h-27.241v24.029
		h26.342c1.626,0,3.148-0.299,4.562-0.899c1.414-0.599,2.634-1.434,3.662-2.506c1.028-1.07,1.841-2.333,2.441-3.791
		C187.469,293.275,187.771,291.733,187.771,290.104z"/>
	<path style="fill:#FFFFFF;" d="M278.874,316.96l-7.196-7.582c-3.771,2.914-7.838,5.12-12.207,6.618
		c-4.369,1.498-8.866,2.249-13.492,2.249c-4.712,0-8.953-0.729-12.721-2.185c-3.771-1.456-6.983-3.425-9.637-5.911
		c-2.656-2.483-4.712-5.375-6.168-8.673c-1.458-3.297-2.184-6.746-2.184-10.344c0-2.827,0.427-5.439,1.285-7.838
		c0.855-2.397,1.992-4.626,3.405-6.682s3.084-3.961,5.011-5.718c1.928-1.755,3.919-3.405,5.975-4.947
		c-1.799-2.056-3.299-3.919-4.498-5.59c-1.2-1.67-2.184-3.277-2.955-4.819s-1.329-3.04-1.67-4.498
		c-0.343-1.456-0.514-2.998-0.514-4.626c0-3.255,0.621-6.232,1.863-8.931c1.241-2.698,2.976-5.011,5.204-6.939
		c2.227-1.927,4.861-3.405,7.902-4.433c3.04-1.028,6.361-1.542,9.958-1.542c3.168,0,6.21,0.43,9.123,1.285
		c2.912,0.857,5.503,2.12,7.774,3.791c2.269,1.67,4.067,3.771,5.396,6.296c1.327,2.528,1.992,5.461,1.992,8.802
		c0,4.969-1.458,9.316-4.369,13.042c-2.913,3.727-6.64,7.218-11.179,10.473l17.604,18.375c1.285-2.74,2.291-5.76,3.02-9.059
		c0.727-3.297,1.092-6.83,1.092-10.601h14.006c-0.086,6.083-0.835,11.629-2.249,16.64s-3.363,9.531-5.847,13.556l18.889,19.789
		h-22.613V316.96z M247.777,304.753c5.311,0,10.193-1.713,14.648-5.14l-21.073-22.358c-2.913,2.142-5.226,4.327-6.939,6.553
		c-1.714,2.229-2.57,4.712-2.57,7.453c0,1.799,0.386,3.534,1.157,5.204c0.771,1.671,1.863,3.106,3.276,4.305
		c1.414,1.2,3.104,2.164,5.076,2.891C243.322,304.39,245.464,304.753,247.777,304.753z M236.984,245.901
		c0,1.458,0.514,2.936,1.542,4.433c1.028,1.5,2.956,3.749,5.783,6.746c3.341-2.14,5.931-4.09,7.774-5.847
		c1.841-1.755,2.763-3.833,2.763-6.232c0-2.313-0.815-4.176-2.441-5.59c-1.628-1.414-3.685-2.12-6.168-2.12
		c-2.743,0-4.969,0.835-6.682,2.506C237.839,241.468,236.984,243.504,236.984,245.901z"/>
</g>
<g>
	<path style="fill:#E0E0E0;" d="M266.152,257.787c2.911-3.726,4.369-8.073,4.369-13.042c0-3.341-0.665-6.274-1.992-8.802
		c-1.329-2.526-3.128-4.626-5.396-6.296c-2.112-1.554-4.514-2.739-7.18-3.589v41.478
		C260.047,264.488,263.453,261.24,266.152,257.787z"/>
	<path style="fill:#E0E0E0;" d="M282.6,297.172c2.484-4.026,4.433-8.545,5.847-13.556s2.163-10.557,2.249-16.64H276.69
		c0,3.771-0.365,7.304-1.092,10.601c-0.729,3.299-1.735,6.319-3.02,9.059l-16.625-17.353v23.463l6.473,6.868
		c-2.065,1.588-4.225,2.792-6.473,3.644v13.773c1.182-0.293,2.355-0.635,3.518-1.034c4.369-1.498,8.437-3.704,12.207-6.618
		l7.196,7.582h22.615L282.6,297.172z"/>
	<path style="fill:#E0E0E0;" d="M385.009,293.446c0,3.855-0.771,7.24-2.313,10.151c-1.542,2.913-3.662,5.355-6.36,7.324
		c-2.698,1.972-5.827,3.47-9.38,4.498c-3.556,1.028-7.346,1.542-11.372,1.542H311.51v-91.233h48.829
		c3.168,0,6.039,0.687,8.609,2.056c2.57,1.371,4.754,3.148,6.553,5.333c1.799,2.184,3.19,4.67,4.176,7.453
		c0.984,2.785,1.478,5.59,1.478,8.417c0,4.455-1.114,8.631-3.341,12.529c-2.229,3.899-5.483,6.79-9.766,8.674
		c5.224,1.542,9.358,4.305,12.4,8.288C383.487,282.459,385.009,287.45,385.009,293.446z M329.242,240.89v23.001h23.643
		c2.998,0,5.545-1.028,7.646-3.084c2.098-2.056,3.148-4.883,3.148-8.481c0-3.512-0.964-6.296-2.891-8.353
		c-1.928-2.056-4.305-3.084-7.132-3.084h-24.414V240.89z M367.148,290.104c0-1.626-0.279-3.19-0.835-4.69
		c-0.559-1.498-1.307-2.805-2.249-3.919c-0.943-1.112-2.056-1.992-3.341-2.634c-1.285-0.643-2.698-0.964-4.24-0.964h-27.241v24.029
		h26.342c1.626,0,3.148-0.299,4.562-0.899c1.414-0.599,2.634-1.434,3.662-2.506c1.028-1.07,1.841-2.333,2.441-3.791
		C366.847,293.275,367.148,291.733,367.148,290.104z"/>
</g>
<g>
</g>
<g>
</g>
<g>
</g>
<g>
</g>
<g>
</g>
<g>
</g>
<g>
</g>
<g>
</g>
<g>
</g>
<g>
</g>
<g>
</g>
<g>
</g>
<g>
</g>
<g>
</g>
<g>
</g>
</svg>
