<?xml version="1.0" encoding="iso-8859-1"?>
<!-- Generator: Adobe Illustrator 19.0.0, SVG Export Plug-In . SVG Version: 6.00 Build 0)  -->
<svg version="1.1" id="Capa_1" xmlns="http://www.w3.org/2000/svg" xmlns:xlink="http://www.w3.org/1999/xlink" x="0px" y="0px"
	 viewBox="0 0 496 496" style="enable-background:new 0 0 496 496;" xml:space="preserve">
<g>
	<g>
		<path d="M496,91.312V0h-16v84.688l-32,32V184h-16v-67.312l-32-32V0h-16v91.312l32,32V184h-8v70.704l-8,24v122.592l8,24V496h64
			v-70.704l8-24V278.704l-8-24V184h-8v-60.688L496,91.312z M464,398.704l-8,24V480h-32v-57.296l-8-24V384h48V398.704z M464,368h-48
			v-16h48V368z M464,336h-48v-16h48V336z M464,304h-48v-22.704l8-24V200h32v57.296l8,24V304z"/>
	</g>
</g>
<g>
	<g>
		<rect x="448" width="16" height="88"/>
	</g>
</g>
<g>
	<g>
		<rect x="416" width="16" height="88"/>
	</g>
</g>
<g>
	<g>
		<path d="M88,184h-8v-45.448c19.352-9.192,32-28.84,32-50.552c0-30.128-23.648-88-56-88S0,57.872,0,88
			c0,21.712,12.648,41.36,32,50.552V184h-8v70.704l-8,24v122.592l8,24V496h64v-70.704l8-24V278.704l-8-24V184z M16,88
			c0-25.176,20.56-72,40-72s40,46.824,40,72c0,16.88-10.72,32.016-26.672,37.664L64,127.56V184H48v-56.44l-5.328-1.896
			C26.72,120.016,16,104.88,16,88z M80,398.704l-8,24V480H40v-57.296l-8-24V384h48V398.704z M80,368H32v-16h48V368z M80,336H32v-16
			h48V336z M80,304H32v-22.704l8-24V200h32v57.296l8,24V304z"/>
	</g>
</g>
<g>
	<g>
		<path d="M48,88c0-10.824,7.936-30.824,14.432-39.608l-12.864-9.52C41.272,50.088,32,73.48,32,88
			c0,11.688,8.032,19.768,16.008,22.592l5.328,1.88l5.328-15.088l-5.32-1.88C51.36,94.808,48,92.432,48,88z"/>
	</g>
</g>
<g>
	<g>
		<path d="M248,104c-79.4,0-144,64.6-144,144s64.6,144,144,144s144-64.6,144-144S327.4,104,248,104z M248,376
			c-70.576,0-128-57.424-128-128s57.424-128,128-128s128,57.424,128,128S318.576,376,248,376z"/>
	</g>
</g>
<g>
	<g>
		<path d="M248,176c-39.696,0-72,32.304-72,72s32.304,72,72,72s72-32.304,72-72S287.696,176,248,176z M248,304
			c-30.88,0-56-25.12-56-56s25.12-56,56-56s56,25.12,56,56S278.88,304,248,304z"/>
	</g>
</g>
<g>
	<g>
		<path d="M282.648,228l-13.856,8c2.096,3.632,3.208,7.784,3.208,12c0,13.232-10.768,24-24,24v16c22.056,0,40-17.944,40-40
			C288,240.968,286.152,234.048,282.648,228z"/>
	</g>
</g>
<g>
	<g>
		<path d="M248,208v16c4.216,0,8.368,1.112,12,3.208l8-13.856C261.952,209.848,255.032,208,248,208z"/>
	</g>
</g>
<g>
</g>
<g>
</g>
<g>
</g>
<g>
</g>
<g>
</g>
<g>
</g>
<g>
</g>
<g>
</g>
<g>
</g>
<g>
</g>
<g>
</g>
<g>
</g>
<g>
</g>
<g>
</g>
<g>
</g>
</svg>
