<?xml version="1.0" encoding="iso-8859-1"?>
<!-- Generator: Adobe Illustrator 19.0.0, SVG Export Plug-In . SVG Version: 6.00 Build 0)  -->
<svg version="1.1" id="Capa_1" xmlns="http://www.w3.org/2000/svg" xmlns:xlink="http://www.w3.org/1999/xlink" x="0px" y="0px"
	 viewBox="0 0 512 512" style="enable-background:new 0 0 512 512;" xml:space="preserve">
<g>
	<g>
		<g>
			<path d="M150,492c-5.51,0-10,4.49-10,10s4.49,10,10,10s10-4.49,10-10S155.51,492,150,492z"/>
			<path d="M501.94,492h-28.555v-63.137c7.406-7.542,11.984-17.853,11.984-29.214c0-23.052-18.822-41.806-41.957-41.806
				c-20.861,0-38.209,15.251-41.418,35.149c-59.65,40.25-127.094,52.354-200.555,35.937c-46.365-10.362-80.971-29.501-92.146-36.202
				c-3.321-19.768-20.604-34.885-41.371-34.885c-23.135,0-41.957,18.754-41.957,41.806c0,11.361,4.578,21.672,11.984,29.214V492H10
				c-5.51,0-10,4.49-10,10s4.49,10,10,10h100c5.51,0,10-4.49,10-10s-4.49-10-10-10H97.895v-63.137
				c3.98-4.054,7.139-8.909,9.213-14.297c16.621,9.176,48.372,24.486,89.246,33.719c22.504,5.083,44.797,7.63,66.633,7.63
				c12.463,0,24.777-0.83,36.895-2.492c36.935-5.066,72.055-17.902,104.607-38.199c2.072,5.125,5.133,9.75,8.951,13.639V492h-11.5
				c-5.51,0-10,4.49-10,10s4.49,10,10,10h100c5.52,0,10-4.49,10-10S507.46,492,501.94,492z M77.895,492H57.949v-51.749
				c3.197,0.78,6.535,1.203,9.973,1.203c3.436,0,6.773-0.423,9.973-1.203V492z M67.922,421.455
				c-12.107,0-21.957-9.782-21.957-21.806s9.85-21.806,21.957-21.806c12.106,0,21.957,9.782,21.957,21.806
				S80.028,421.455,67.922,421.455z M453.386,492L453.386,492H433.44v-51.749c3.199,0.78,6.537,1.203,9.973,1.203
				c3.438,0,6.775-0.423,9.973-1.203V492z M443.413,421.455c-12.107,0-21.957-9.782-21.957-21.806s9.85-21.806,21.957-21.806
				s21.957,9.782,21.957,21.806S455.52,421.455,443.413,421.455z"/>
			<path d="M361.94,492c-5.51,0-10,4.49-10,10s4.49,10,10,10c5.52,0,10-4.49,10-10S367.46,492,361.94,492z"/>
			<path d="M10.5,141.917h142.806c5.522,0,10-4.477,10-10V11.651c0-5.523-4.478-10-10-10H10.5c-5.523,0-10,4.477-10,10v120.267
				C0.5,137.44,4.977,141.917,10.5,141.917z M20.5,21.651h122.806v100.267H20.5V21.651z"/>
			<path d="M502,0H196.747c-5.523,0-10,4.477-10,10v153.398c0,5.523,4.477,10,10,10H502c5.523,0,10-4.477,10-10V10
				C512,4.477,507.524,0,502,0z M492,153.398H206.747V20H492V153.398z"/>
			<path d="M112.424,41.321H51.381c-5.523,0-10,4.477-10,10v39.757c0,5.523,4.477,10,10,10h61.043c5.524,0,10-4.477,10-10V51.321
				C122.424,45.798,117.947,41.321,112.424,41.321z M102.424,81.078H61.381V61.321h41.043V81.078z"/>
			<path d="M10.5,332.926h142.806c5.522,0,10-4.477,10-10V172.841c0-5.523-4.478-10-10-10H10.5c-5.523,0-10,4.477-10,10v150.085
				C0.5,328.448,4.977,332.926,10.5,332.926z M20.5,182.841h122.806v130.085H20.5V182.841z"/>
			<path d="M112.424,202.51H51.381c-5.523,0-10,4.477-10,10v69.576c0,5.523,4.477,10,10,10h61.043c5.524,0,10-4.477,10-10V212.51
				C122.424,206.987,117.947,202.51,112.424,202.51z M102.424,272.086H61.381V222.51h41.043V272.086z"/>
			<path d="M483.969,335.442L483.969,335.442c5.521,0,10-4.477,10-10V203.175c0-5.523-4.479-10-10-10H362.131
				c-5.522,0-10,4.477-10,10v122.267c0,5.523,4.478,10,10,10H483.969z M372.131,213.175h101.838v102.267H372.131V213.175z"/>
			<path d="M443.524,233.429h-40.947c-5.521,0-10,4.477-10,10v41.757c0,5.523,4.479,10,10,10h40.947c5.522,0,10-4.477,10-10v-41.757
				C453.524,237.907,449.045,233.429,443.524,233.429z M433.524,275.187h-20.947V253.43h20.947V275.187z"/>
			<path d="M196.248,363.831h121.836c5.523,0,10-4.477,10-10V203.565c0-5.523-4.477-10-10-10H196.248c-5.523,0-10,4.477-10,10
				v150.267C186.248,359.354,190.725,363.831,196.248,363.831z M206.248,213.565h101.836v130.267H206.248V213.565z"/>
			<path d="M277.639,233.234h-40.946c-5.523,0-10,4.477-10,10v69.758c0,5.523,4.477,10,10,10h40.946c5.523,0,10-4.477,10-10v-69.758
				C287.639,237.711,283.163,233.234,277.639,233.234z M267.639,302.992h-20.946v-49.758h20.946V302.992z"/>
			<path d="M239.689,131.073h219.202c5.523,0,10-4.477,10-10V52.321c0-5.523-4.477-10-10-10H239.689c-5.523,0-10,4.477-10,10v68.753
				C229.689,126.596,234.166,131.073,239.689,131.073z M249.689,62.321h199.202v48.753H249.689V62.321z"/>
		</g>
	</g>
</g>
<g>
</g>
<g>
</g>
<g>
</g>
<g>
</g>
<g>
</g>
<g>
</g>
<g>
</g>
<g>
</g>
<g>
</g>
<g>
</g>
<g>
</g>
<g>
</g>
<g>
</g>
<g>
</g>
<g>
</g>
</svg>
