<?xml version="1.0" encoding="iso-8859-1"?>
<!-- Generator: Adobe Illustrator 19.0.0, SVG Export Plug-In . SVG Version: 6.00 Build 0)  -->
<svg version="1.1" id="Capa_1" xmlns="http://www.w3.org/2000/svg" xmlns:xlink="http://www.w3.org/1999/xlink" x="0px" y="0px"
	 viewBox="0 0 496 496" style="enable-background:new 0 0 496 496;" xml:space="preserve">
<g>
	<g>
		<path d="M488,0h-40c-4.8,0-8,3.2-8,8v104H152V88c0-4.8-3.2-8-8-8H56V8c0-4.8-3.2-8-8-8H8C3.2,0,0,3.2,0,8v480c0,4.8,3.2,8,8,8h40
			c4.8,0,8-3.2,8-8v-72h384v72c0,4.8,3.2,8,8,8h40c4.8,0,8-3.2,8-8V8C496,3.2,492.8,0,488,0z M40,480H16V16h24V480z M56,96h80v16H56
			V96z M56,296h80v16H56V296z M328,400H56v-16h272V400z M328,368H56v-40h272V368z M328,312H152v-24c0-4.8-3.2-8-8-8H56v-64h272V312z
			 M328,200H56v-16h272V200z M328,168H56v-40h272V168z M440,400h-96v-16h96V400z M440,368h-96v-40h96V368z M440,312h-96v-16h96V312z
			 M440,280h-96v-32h96V280z M440,232h-96v-16h96V232z M440,200h-96v-16h96V200z M440,168h-96v-40h96V168z M480,480h-24V16h24V480z"
			/>
	</g>
</g>
<g>
</g>
<g>
</g>
<g>
</g>
<g>
</g>
<g>
</g>
<g>
</g>
<g>
</g>
<g>
</g>
<g>
</g>
<g>
</g>
<g>
</g>
<g>
</g>
<g>
</g>
<g>
</g>
<g>
</g>
</svg>
