<?xml version="1.0" encoding="iso-8859-1"?>
<!-- Generator: Adobe Illustrator 19.0.0, SVG Export Plug-In . SVG Version: 6.00 Build 0)  -->
<svg version="1.1" id="Capa_1" xmlns="http://www.w3.org/2000/svg" xmlns:xlink="http://www.w3.org/1999/xlink" x="0px" y="0px"
	 viewBox="0 0 512 512" style="enable-background:new 0 0 512 512;" xml:space="preserve">
<circle style="fill:#005C83;" cx="256" cy="256" r="256"/>
<path style="fill:#00263F;" d="M512,256c0-6.919-0.284-13.772-0.822-20.552L401.5,125.77l-327,193l27.138,27.138L84,354.27
	l157.3,157.3c4.866,0.276,9.765,0.43,14.7,0.43C397.385,512,512,397.385,512,256z"/>
<rect x="405.29" y="299.27" style="fill:#FF9451;" width="22.712" height="55"/>
<rect x="84" y="299.27" style="fill:#FFB344;" width="22.712" height="55"/>
<rect x="110.5" y="125.77" style="fill:#FF6838;" width="291" height="139.5"/>
<rect x="255.95" y="125.77" style="fill:#AE4E32;" width="145.55" height="139.5"/>
<path style="fill:#E6E6E6;" d="M224.75,258.27h-87.5c-9.665,0-17.5-7.835-17.5-17.5l0,0c0-9.665,7.835-17.5,17.5-17.5h87.5
	c9.665,0,17.5,7.835,17.5,17.5l0,0C242.25,250.435,234.415,258.27,224.75,258.27z"/>
<path style="fill:#CCCCCC;" d="M374.75,258.27h-87.5c-9.665,0-17.5-7.835-17.5-17.5l0,0c0-9.665,7.835-17.5,17.5-17.5h87.5
	c9.665,0,17.5,7.835,17.5,17.5l0,0C392.25,250.435,384.415,258.27,374.75,258.27z"/>
<rect x="97.25" y="246" style="fill:#FFFFFF;" width="317.5" height="49.77"/>
<rect x="255.95" y="246" style="fill:#E0E0E0;" width="158.8" height="49.77"/>
<rect x="74.5" y="274.27" style="fill:#FF9451;" width="363" height="44.5"/>
<rect x="255.95" y="274.27" style="fill:#F7674F;" width="181.55" height="44.5"/>
<g>
</g>
<g>
</g>
<g>
</g>
<g>
</g>
<g>
</g>
<g>
</g>
<g>
</g>
<g>
</g>
<g>
</g>
<g>
</g>
<g>
</g>
<g>
</g>
<g>
</g>
<g>
</g>
<g>
</g>
</svg>
