<?xml version="1.0" encoding="iso-8859-1"?>
<!-- Generator: Adobe Illustrator 19.0.0, SVG Export Plug-In . SVG Version: 6.00 Build 0)  -->
<svg version="1.1" id="Capa_1" xmlns="http://www.w3.org/2000/svg" xmlns:xlink="http://www.w3.org/1999/xlink" x="0px" y="0px"
	 viewBox="0 0 512 512" style="enable-background:new 0 0 512 512;" xml:space="preserve">
<g>
	<g>
		<path d="M481.984,412.004h-80.333l98.048-98.049c7.933-7.933,12.302-18.478,12.302-29.697s-4.369-21.765-12.301-29.696
			c-7.933-7.934-18.479-12.304-29.698-12.304s-21.765,4.37-29.697,12.303l-80.85,80.85l-92.231-160.616l53.513-30.896
			c0.238-0.114,0.477-0.229,0.709-0.363c0.232-0.134,0.451-0.283,0.668-0.432l75.94-43.844c2.297-1.326,3.973-3.511,4.66-6.073
			c0.686-2.563,0.326-5.292-1-7.589C356.223,6.852,257.124-22.049,176.876,18.283l-3.086-5.345c-2.761-4.783-8.877-6.422-13.66-3.66
			s-6.422,8.877-3.66,13.66l3.086,5.345c-75.052,49.331-99.574,149.604-54.122,228.372c1.326,2.298,3.51,3.974,6.072,4.661
			c0.852,0.229,1.722,0.341,2.589,0.341c1.741,0,3.467-0.454,5-1.34l76.105-43.94c0.181-0.09,0.366-0.165,0.543-0.267
			c0.232-0.134,0.45-0.282,0.668-0.432l53.493-30.884l93.722,163.212H205.672c-5.523,0-10,4.478-10,10c0,5.522,4.477,10,10,10H351
			c2.652,0,5.196-1.054,7.071-2.929l96.376-96.375c4.155-4.155,9.679-6.444,15.554-6.444c5.876,0,11.4,2.289,15.555,6.445
			c4.155,4.155,6.443,9.68,6.443,15.555c0,5.876-2.288,11.4-6.444,15.555L379.809,405.561c-4.154,4.155-9.679,6.443-15.555,6.443
			H42.012c-12.131,0-21.999-9.869-21.999-21.999s9.869-21.999,21.999-21.999h80.997c5.523,0,10-4.478,10-10c0-5.522-4.477-10-10-10
			H42.012c-23.158,0-41.999,18.84-41.999,41.999c0,11.034,4.283,21.08,11.266,28.583C4.41,424.089,0,432.538,0,442.003
			c0,16.541,13.458,29.999,29.999,29.999h44.708L56.141,495.68c-2.361,3.011-2.796,7.105-1.122,10.546s5.166,5.624,8.992,5.624
			h40.999c2.37,0,4.663-0.842,6.47-2.375l44.163-37.473h200.726l44.163,37.473c1.807,1.533,4.1,2.375,6.47,2.375h40.999
			c3.826,0,7.317-2.184,8.992-5.624c1.675-3.44,1.239-7.535-1.122-10.546l-18.565-23.678h44.68
			c16.541,0,29.999-13.458,29.999-29.999S498.525,412.004,481.984,412.004z M253.336,20.138c49.095,0,96.985,23.919,125.773,66.968
			l-59.144,34.146c-21.267-34.65-46.949-63.711-73.016-82.467c-8.972-6.456-17.727-11.483-26.142-15.078
			C231.581,21.319,242.487,20.138,253.336,20.138z M118.04,237.833c-27.946-56.723-16.946-123.845,24.247-168.799
			c-1.094,9.087-1.119,19.185-0.014,30.186c3.21,31.953,15.536,68.724,34.911,104.466L118.04,237.833z M194.51,193.683
			c-17.985-33.288-29.399-67.224-32.337-96.463c-2.238-22.271,0.779-39.753,8.345-49.95l38.157,66.09
			c1.852,3.208,5.213,5.002,8.669,5.002c1.696,0,3.416-0.433,4.991-1.342c4.783-2.762,6.422-8.877,3.66-13.66l-38.157-66.091
			c12.614-1.455,29.261,4.675,47.43,17.748c23.853,17.164,47.536,44.017,67.372,76.235L194.51,193.683z M101.339,491.849h-16.78
			l15.563-19.848h24.609L101.339,491.849z M410.669,491.849l-23.391-19.848h24.609l15.562,19.848H410.669z M481.984,452.003H29.999
			c-5.514,0-10-4.486-10-10c0-5.514,4.486-10,10-10h451.985c5.514,0,10,4.486,10,10
			C491.984,447.517,487.498,452.003,481.984,452.003z"/>
	</g>
</g>
<g>
	<g>
		<path d="M174.416,350.931c-1.87-1.86-4.45-2.93-7.08-2.93s-5.21,1.069-7.07,2.93c-1.86,1.87-2.93,4.44-2.93,7.07
			c0,2.63,1.07,5.21,2.93,7.08c1.86,1.859,4.44,2.93,7.07,2.93c2.631-0.001,5.211-1.071,7.08-2.93c1.86-1.87,2.92-4.44,2.92-7.08
			C177.336,355.371,176.276,352.791,174.416,350.931z"/>
	</g>
</g>
<g>
	<g>
		<path d="M242.665,133.157c-1.86-1.859-4.441-2.92-7.07-2.92c-2.63,0-5.21,1.061-7.07,2.92c-1.86,1.87-2.93,4.44-2.93,7.08
			c0,2.63,1.07,5.21,2.93,7.07c1.86,1.86,4.44,2.93,7.07,2.93c2.63,0,5.21-1.069,7.07-2.93c1.86-1.86,2.93-4.44,2.93-7.07
			C245.595,137.597,244.525,135.027,242.665,133.157z"/>
	</g>
</g>
<g>
</g>
<g>
</g>
<g>
</g>
<g>
</g>
<g>
</g>
<g>
</g>
<g>
</g>
<g>
</g>
<g>
</g>
<g>
</g>
<g>
</g>
<g>
</g>
<g>
</g>
<g>
</g>
<g>
</g>
</svg>
